Part 1:

   General
      Format : AVI
      Format/Info : Audio Video Interleave
      Format profile : OpenDML
      File size : 3.03 GiB
      Duration : 7h 27mn
      Overall bit rate : 970 Kbps
      Writing application : Nandub v1.0rc2
      Writing library : Nandub build 1853/release
   Video
      Format : MPEG-4 Visual
      Format settings, BVOP : No
      Format settings, QPel : No
      Format settings, GMC : No warppoints
      Format settings, Matrix : Default
      Codec ID : DX50
      Codec ID/Hint : DivX 5
      Duration : 7h 27mn
      Bit rate : 768 Kbps
      Width : 352 pixels
      Height : 288 pixels
      Display aspect ratio : 1.222
      Frame rate : 25.000 fps
      Resolution : 24 bits
      Colorimetry : 4:2:0
      Scan type : Progressive
      Bits/(Pixel*Frame) : 0.303
      Stream size : 2.40 GiB (79%)
      Writing library : DivX 1586
   Audio
      Format : MPEG Audio
      Format version : Version 1
      Format profile : Layer 2
      Codec ID : 50
      Codec ID/Hint : MP1
      Bit rate mode : Constant
      Bit rate : 192 Kbps
      Channel(s) : 2 channels
      Sampling rate : 44.1 KHz
      Resolution : 16 bits
      Video delay : 7ms
      Stream size : 614 MiB (20%)
      Alignment : Split accross interleaves
      Interleave, duration : 40 ms (1.00 video frame)
      Interleave, preload duration : 500 ms 
http://img210.imageshack.us/img210/9503/part1000869130421.jpg



Part 2:

   General
      Format : AVI
      Format/Info : Audio Video Interleave
      Format profile : OpenDML
      File size : 3.04 GiB
      Duration : 7h 28mn
      Overall bit rate : 971 Kbps
      Writing application : Nandub v1.0rc2
      Writing library : Nandub build 1853/release
   Video
      Format : MPEG-4 Visual
      Format settings, BVOP : No
      Format settings, QPel : No
      Format settings, GMC : No warppoints
      Format settings, Matrix : Default
      Codec ID : DX50
      Codec ID/Hint : DivX 5
      Duration : 7h 28mn
      Bit rate : 768 Kbps
      Width : 352 pixels
      Height : 288 pixels
      Display aspect ratio : 1.222
      Frame rate : 25.000 fps
      Resolution : 24 bits
      Colorimetry : 4:2:0
      Scan type : Progressive
      Bits/(Pixel*Frame) : 0.303
      Stream size : 2.40 GiB (79%)
      Writing library : DivX 1586
   Audio
      Format : MPEG Audio
      Format version : Version 1
      Format profile : Layer 2
      Codec ID : 50
      Codec ID/Hint : MP1
      Bit rate mode : Constant
      Bit rate : 192 Kbps
      Channel(s) : 2 channels
      Sampling rate : 44.1 KHz
      Resolution : 16 bits
      Video delay : 2ms
      Stream size : 615 MiB (20%)
      Alignment : Split accross interleaves
      Interleave, duration : 40 ms (1.00 video frame)
      Interleave, preload duration : 500 ms 
http://img63.imageshack.us/img63/904/part2103317130610.jpg



Part 3:

   General
      Format : AVI
      Format/Info : Audio Video Interleave
      Format profile : OpenDML
      File size : 2.92 GiB
      Duration : 7h 10mn
      Overall bit rate : 971 Kbps
      Writing application : Nandub v1.0rc2
      Writing library : Nandub build 1853/release
   Video
      Format : MPEG-4 Visual
      Format settings, BVOP : No
      Format settings, QPel : No
      Format settings, GMC : No warppoints
      Format settings, Matrix : Default
      Codec ID : DX50
      Codec ID/Hint : DivX 5
      Duration : 7h 10mn
      Bit rate : 768 Kbps
      Width : 352 pixels
      Height : 288 pixels
      Display aspect ratio : 1.222
      Frame rate : 25.000 fps
      Resolution : 24 bits
      Colorimetry : 4:2:0
      Scan type : Progressive
      Bits/(Pixel*Frame) : 0.303
      Stream size : 2.31 GiB (79%)
      Writing library : DivX 1586
   Audio
      Format : MPEG Audio
      Format version : Version 1
      Format profile : Layer 2
      Codec ID : 50
      Codec ID/Hint : MP1
      Bit rate mode : Constant
      Bit rate : 192 Kbps
      Channel(s) : 2 channels
      Sampling rate : 44.1 KHz
      Resolution : 16 bits
      Video delay : 17ms
      Stream size : 591 MiB (20%)
      Alignment : Split accross interleaves
      Interleave, duration : 40 ms (1.00 video frame)
      Interleave, preload duration : 500 ms 
http://img571.imageshack.us/img571/4205/part3154238130717.jpg


Upload speed: 40-45 kb/s